**ABCDEFGHIJKLMNOPQRSTUVWXYZabcdefghijklmnopqrstuvwxyz**************************
**PARASOLID !"#$%&'()*+,-./:;<=>?@[\]^_`{|}~0123456789**************************
**PART1;
MC=unknown;
MC_MODEL=unknown;
MC_ID=unknown;
OS=unknown;
OS_RELEASE=unknown;
FRU=COMSOL;
APPL=COMSOL Multiphysics;
SITE=unknown;
USER=unknown;
FORMAT=text;
GUISE=transmit;
KEY=unicode filename;
FILE=unicode filename;
DATE=unknown;
**PART2;
SCH=SCH_3600142_36001;
USFLD_SIZE=0;
**PART3;
**END_OF_HEADER*****************************************************************
T51 : TRANSMIT FILE created by modeller version 360014223 SCH_3600142_36001_1300
6231 0 176 6 14 PART_XMT_BLOCK9 Part list9 n_entries0 0 1 d16 index_map_offset0
 0 1 d9 index_map82 0 20 schema_embedding_map82 0 16 mesh_offset_data206 0 7 ent
ries1005 1 T5 1 5 0 0 0 0 2 3 4 5 6 12 36 CCCI7 lattice222 0 CCCI4 mesh1006 0 I8
 polyline1008 0 CCCCCCCDI5 owner1040 0 CCCI16 boundary_lattice222 0 CCCI13 bound
ary_mesh1006 0 I17 boundary_polyline1008 0 CCCA16 index_map_offset0 0 1 dA9 inde
x_map82 0 A17 node_id_index_map82 0 A20 schema_embedding_map82 0 A5 child12 0 A1
4 lowest_node_id0 0 1 dA16 mesh_offset_data206 0 Z2 168 0 7 0 0 0 0 0 0 0 1e3 1e
-8 0 6 0 1 0 1 1 8 0 9 10 11 0 0 12 13 14 0 0 0 0 0 0 0 12 3 116 0 15 0 0 0 0 0
 0 0 1e3 1e-8 0 5 4 1 0 1 1 16 0 17 18 19 0 0 20 21 22 0 0 0 0 0 0 0 12 4 169 0
 23 0 0 0 0 0 0 0 1e3 1e-8 0 3 6 1 0 1 1 24 0 25 26 27 0 0 28 29 30 0 0 0 0 0 0
 0 12 5 533 0 31 0 0 0 0 0 0 0 1e3 1e-8 0 32 3 1 0 1 1 33 0 34 35 36 0 0 37 38 3
9 0 0 0 0 0 0 0 12 6 119 0 40 0 0 0 0 0 0 0 1e3 1e-8 0 4 2 1 0 1 1 41 0 42 43 44
 0 0 45 46 47 0 0 0 0 0 0 0 70 11 CI9 list_type0 0 1 uI10 notransmit0 0 1 lCCCDC
CDI12 finger_index0 0 1 dI12 finger_block1012 0 CZ40 0 4 T6 0 0 2 20 1 48 48 13
 255 41 5 0 6 0 49 0 0 50 0 50 255 42 88 0 49 51 0 0 +0 75e-5 1e-4 0 0 1 0 -1 0
 30 255 43 92 0 46 52 0 0 +0 5e-4 1e-4 0 -1 0 29 255 44 87 0 47 53 0 0 25e-5 1e-
4 19 9 CCCCCCI5 frame230 0 CA5 owner12 0 Z45 1 54 6 50 0 55 0 V0 16 255 46 24 56
 ?57 0 58 43 0 0 6 18 255 47 48 59 60 0 61 44 ?6 81 255 1 59 111 62 47 63 0 64 6
5 66 17 255 60 0 67 68 69 47 70 58 0 57 -18 61 50 65 71 47 72 73 ?6 81 1 65 112
 62 61 74 0 59 75 76 17 71 0 77 78 79 61 80 81 0 68 -18 72 52 75 70 61 82 83 ?6
 29 73 85 0 61 84 53 0 75e-5 1e-4 29 84 84 0 85 83 73 0 75e-5 6e-4 29 53 86 0 82
 73 44 0 25e-5 6e-4 18 82 54 86 87 72 85 53 ?6 81 1 86 114 62 82 88 0 75 89 90 1
7 87 0 91 92 93 82 94 95 0 96 -18 85 56 89 97 82 98 84 ?6 81 1 89 115 62 85 99 0
 86 100 101 17 97 0 102 96 103 85 104 105 0 78 -18 98 58 100 106 85 107 108 ?6 8
1 1 100 116 62 98 109 0 89 110 111 17 106 0 112 113 114 98 103 115 0 94 -18 107
 60 110 114 98 116 117 ?6 29 108 82 0 98 117 83 .01 25e-5 6e-4 29 117 81 0 107 1
18 108 .01 75e-5 6e-4 29 83 83 0 72 108 84 .01 25e-5 1e-4 29 118 80 0 116 0 117
 .01 75e-5 1e-4 18 116 62 119 120 107 0 118 ?6 81 1 119 118 62 116 121 0 110 0 1
22 17 120 0 112 114 113 116 69 123 0 80 -15 255 112 11 0 113 124 0 17 114 0 112
 106 120 107 79 125 0 104 -17 113 0 112 120 106 72 93 126 0 0 -17 69 0 67 60 80
 72 120 123 0 113 +16 123 44 127 ?69 125 81 128 0 0 6 17 80 0 67 69 68 116 71 81
 0 79 +15 67 8 0 68 49 0 17 68 0 67 80 60 61 57 46 0 129 -16 81 46 64 ?80 123 0
 130 0 0 6 17 79 0 77 71 104 116 114 125 0 0 +15 77 14 0 78 131 0 17 104 0 77 79
 78 107 97 105 0 103 +16 125 42 132 ?79 105 123 133 0 0 6 81 1 132 108 62 125 13
4 0 135 127 136 16 105 40 135 ?104 115 125 137 0 0 6 30 133 70 0 125 0 138 0 +.0
1 75e-5 35e-5 99127055770105e-30 -495635278850514e-31 -1 30 138 71 0 115 133 139
 0 +.01 5e-4 6e-4 991270557701089e-31 1 4027036640660405e-32 16 115 38 140 ?103
 95 105 138 0 0 6 30 139 72 0 126 138 137 0 +.01 25e-5 35e-5 991270557701042e-31
 0 1 16 126 34 141 ?93 142 95 139 0 0 6 30 137 73 0 105 139 143 0 +.005 75e-5 6e
-4 1 -247817639425259e-32 2013518320330225e-33 30 143 74 0 142 137 144 0 +0 75e-
5 35e-5 0 -495635278850514e-31 -1 16 142 32 145 ?129 146 126 143 0 0 6 30 144 75
 0 95 143 147 0 +.005 25e-5 6e-4 1 0 2013518320330225e-33 16 95 36 148 ?94 126 1
15 144 0 0 6 30 147 76 0 146 144 149 0 +0 5e-4 6e-4 0 1 4027036640660405e-32 16
 146 30 150 ?151 152 142 147 0 0 6 30 149 79 0 152 147 130 0 +0 25e-5 35e-5 0 0
 1 16 152 28 153 ?154 58 146 149 0 0 6 30 130 89 0 81 149 128 0 +.005 75e-5 1e-4
 1 -247817639425259e-32 174246777720884e-33 30 128 90 0 123 130 52 0 +.01 5e-4 1
e-4 991270557701032e-31 -1 0 30 52 91 0 58 128 43 0 +.005 25e-5 1e-4 1 0 1742467
77720884e-33 16 58 26 155 ?70 46 152 52 0 0 6 81 1 155 100 62 58 156 0 56 153 15
7 17 70 0 91 93 92 72 60 58 0 69 +15 91 20 0 92 158 0 17 93 0 91 87 70 98 113 12
6 0 0 +17 92 0 91 70 87 47 154 152 0 0 -17 154 0 159 151 57 82 92 152 0 0 +15 15
9 23 0 154 160 0 17 151 0 159 129 154 85 96 146 0 0 +17 57 0 159 154 129 47 68 4
6 0 92 +17 129 0 159 57 151 61 78 142 0 0 +17 78 0 77 104 71 85 129 142 0 151 -1
7 96 0 102 94 97 82 151 146 0 154 -15 102 17 0 96 161 0 17 94 0 102 103 96 98 87
 95 0 93 +17 103 0 102 97 94 107 106 115 0 0 +14 255 161 15 162 ?158 131 102 41
 163 -0 0 131 158 55 81 1 162 96 62 161 164 0 165 166 167 14 158 18 166 ?160 161
 91 41 168 -0 0 161 160 55 14 131 12 165 ?161 124 77 41 169 -0 0 124 161 55 50 1
63 66 0 161 169 168 0 +0 25e-5 6e-4 0 0 -1 0 1 0 13 55 2 0 0 0 0 0 0 45 49 14 49
 6 170 ?124 0 67 41 42 -0 0 160 0 55 81 1 170 93 62 49 171 0 0 172 173 14 124 9
 172 ?131 49 112 41 174 +0 0 0 131 55 14 160 21 175 ?0 158 159 41 51 -0 0 158 49
 55 81 1 175 98 62 160 176 0 166 56 177 50 51 69 0 160 168 42 0 +0 -.001 -.001 1
 0 0 0 1 0 50 168 68 0 158 163 51 0 +0 25e-5 1e-4 0 1 0 0 0 1 80 7 CCCCCDI12 leg
al_owners0 17 1 lCZ1 62 178 179 8017 0 0 0 0 0 0 0 0 0 TTTTTTTTTTTTTFTFT3 81 1 1
76 22 180 160 0 175 181 182 183 81 1 166 97 62 158 181 0 162 175 184 81 1 56 99
 62 46 182 0 175 155 185 84 255 4 177 15 581 1 182 25 180 46 0 56 176 156 186 84
 4 185 18 580 1 180 187 188 9000 0 0 0 0 3 5 0 0 0 FFFFTFTTFFFFTFFFF1 81 1 156 2
7 180 58 0 155 182 189 190 82 255 1 186 1 81 1 189 29 180 152 0 153 156 191 192
 82 1 190 2 81 1 153 101 62 152 189 0 155 150 193 81 1 191 31 180 146 0 150 189
 194 195 82 1 192 0 81 1 150 102 62 146 191 0 153 145 196 81 1 194 33 180 142 0
 145 191 197 198 82 1 195 3 81 1 145 103 62 142 194 0 150 141 199 81 1 197 35 18
0 126 0 141 194 200 201 82 1 198 5 81 1 141 104 62 126 197 0 145 148 202 81 1 20
0 37 180 95 0 148 197 203 204 82 1 201 8 81 1 148 105 62 95 200 0 141 140 205 81
 1 203 39 180 115 0 140 200 206 207 82 1 204 4 81 1 140 106 62 115 203 0 148 135
 208 81 1 206 41 180 105 0 135 203 134 209 82 1 207 10 81 1 135 107 62 105 206 0
 140 132 210 81 1 134 43 180 125 0 132 206 211 212 82 1 209 7 81 1 211 45 180 12
3 0 127 134 213 214 82 1 212 11 81 1 127 109 62 123 211 0 132 64 215 81 1 213 47
 180 81 0 64 211 63 216 82 1 214 9 81 1 64 110 62 81 213 0 127 59 217 81 1 63 49
 180 47 0 59 213 74 218 82 1 216 6 81 1 74 51 180 61 0 65 63 219 220 82 1 218 0
 81 1 219 53 180 72 0 75 74 88 221 82 1 220 2 81 1 75 113 62 72 219 0 65 86 222
 81 1 88 55 180 82 0 86 219 99 223 82 1 221 4 81 1 99 57 180 85 0 89 88 109 224
 82 1 223 1 81 1 109 59 180 98 0 100 99 225 226 82 1 224 3 81 1 225 61 180 107 0
 110 109 121 227 82 1 226 5 81 1 110 117 62 107 225 0 100 119 228 81 1 121 63 18
0 116 0 119 225 54 229 82 1 227 7 81 1 54 119 180 45 0 0 121 0 230 82 1 229 6 82
 1 230 0 84 4 228 28 584 4 222 23 584 4 217 28 584 4 215 48 584 4 210 29 584 4 2
08 49 584 4 205 21 584 4 202 47 584 4 199 26 584 4 196 20 584 4 193 17 579 255 1
2 188 COMSOL_LABEL81 1 181 19 180 158 0 166 164 176 231 84 4 184 16 581 1 164 16
 180 161 0 162 232 181 233 82 1 231 1 81 1 232 13 180 131 0 165 234 164 235 82 1
 233 3 81 1 165 95 62 131 232 0 172 162 236 81 1 234 10 180 124 0 172 171 232 23
7 82 1 235 4 81 1 172 94 62 124 234 0 170 165 238 81 1 171 7 180 49 0 170 239 23
4 240 82 1 237 5 81 1 239 4 180 50 0 0 0 171 241 82 1 240 2 19 50 3 239 6 0 45 4
1 0 S0 82 1 241 1 84 4 238 30 584 4 236 21 582 1 183 0 79 13 179 SDL/TYSA_NAME50
 174 64 0 124 0 169 0 +.01 -.001 -.001 1 0 0 0 1 0 50 169 65 0 131 174 163 0 +0
 75e-5 6e-4 0 -1 0 0 0 -1 84 4 173 17 584 4 167 18 584 4 157 19 584 4 136 52 584
 4 122 27 584 4 111 24 584 4 101 12 584 3 90 8 584 4 76 11 584 3 66 7 574 4 CI16
 index_map_offset0 0 1 dCCZ20 48 2 0 0 54 119 0 0 0 0 0 0 0 0 0 0 0 0 0 0 0 0 0
 0 70 31 0 4 T5 0 0 2 20 1 242 242 13 33 158 0 5 0 243 0 0 244 0 50 34 277 0 245
 246 0 0 +.01 -.001 -.001 1 0 0 0 1 0 30 35 242 0 247 248 0 0 +.01 75e-5 -45e-5
 991270557701083e-31 -495635278850508e-31 -1 29 36 487 0 39 249 0 .01 25e-5 -2e-
4 19 37 1 250 5 244 0 251 0 V0 16 38 447 252 ?253 0 254 255 0 0 5 18 39 485 256
 257 0 258 36 ?5 81 1 256 525 62 39 259 0 260 261 262 17 257 0 263 264 265 39 26
6 254 0 253 -18 258 99 261 267 39 268 249 ?5 81 1 261 526 62 258 269 0 256 270 2
71 17 267 0 272 273 274 258 275 276 0 266 +18 268 77 270 273 258 277 278 ?5 29 2
49 186 0 258 278 36 .01 75e-5 -2e-4 29 278 185 0 268 279 249 .01 75e-5 -7e-4 29
 279 181 0 277 280 278 .01 25e-5 -7e-4 18 277 72 281 282 268 283 279 ?5 29 280 1
70 0 284 285 279 0 75e-5 -2e-4 18 284 13 286 275 287 0 280 ?5 29 285 169 0 283 2
88 280 0 75e-5 -7e-4 18 283 67 289 290 277 291 285 ?5 29 288 166 0 287 292 285 0
 25e-5 -2e-4 18 287 15 293 294 291 284 288 ?5 29 292 165 0 291 0 288 0 25e-5 -7e
-4 18 291 65 295 296 283 287 292 ?5 81 1 295 530 62 291 297 0 289 293 298 17 296
 0 299 300 282 291 301 302 0 303 -15 299 75 0 300 304 0 17 300 0 299 305 296 283
 303 306 0 307 -17 282 0 299 296 305 277 308 309 0 264 +17 301 0 310 311 312 277
 296 302 0 0 +16 302 71 313 ?301 314 306 315 0 0 5 17 303 0 316 317 307 291 300
 306 0 312 +15 316 63 0 317 318 0 17 317 0 316 319 303 287 312 320 0 0 +17 307 0
 316 303 319 283 274 321 0 0 +16 306 68 322 ?303 302 321 323 0 0 5 17 312 0 310
 301 294 291 317 320 0 0 -15 310 70 0 312 324 0 17 294 0 310 312 311 287 253 38
 0 325 -16 320 64 326 ?317 321 327 328 0 0 5 81 1 326 523 62 320 329 0 330 260 3
31 16 321 66 330 ?307 306 320 332 0 0 5 16 327 14 260 ?319 320 0 333 0 0 5 30 32
8 204 0 320 0 323 0 +0 25e-5 -45e-5 0 0 1 30 323 205 0 306 328 315 0 +0 5e-4 -7e
-4 0 -1 0 30 315 206 0 302 323 333 0 +.005 25e-5 -7e-4 1 0 774430123203939e-33 3
0 333 207 0 327 315 255 0 +0 5e-4 -2e-4 0 1 0 30 255 208 0 38 333 332 0 +.005 25
e-5 -2e-4 1 0 -348493555441768e-33 30 332 214 0 321 255 334 0 +0 75e-5 -45e-5 0
 -495635278850508e-31 -1 30 334 215 0 335 332 336 0 +.005 75e-5 -7e-4 1 -2478176
39425259e-32 774430123203939e-33 16 335 76 337 ?305 309 314 334 0 0 5 30 336 217
 0 276 334 338 0 +.005 75e-5 -2e-4 1 -247817639425259e-32 -348493555441768e-33 1
6 276 98 339 ?267 247 309 336 0 0 5 30 338 236 0 314 336 340 0 +.01 25e-5 -45e-5
 991270557700979e-31 0 1 16 314 73 341 ?311 335 302 338 0 0 5 30 340 237 0 309 3
38 248 0 +.01 5e-4 -7e-4 991270557701032e-31 -1 0 16 309 78 342 ?282 276 335 340
 0 0 5 30 248 238 0 254 340 35 0 +.01 5e-4 -2e-4 991270557701089e-31 1 0 16 254
 429 343 ?266 38 247 248 0 0 5 81 1 343 514 62 254 344 0 252 345 346 17 266 0 34
7 275 253 258 257 254 0 265 +16 247 100 345 ?273 254 276 35 0 0 5 81 1 345 515 6
2 247 348 0 343 339 349 17 273 0 272 290 267 268 265 247 0 308 +15 272 97 0 274
 350 0 17 290 0 272 274 273 283 305 335 0 300 -17 265 0 263 257 308 258 273 247
 0 0 -17 308 0 263 265 264 268 282 309 0 305 -15 263 140 0 264 245 0 17 264 0 26
3 308 257 277 311 314 0 301 -17 305 0 299 282 300 268 290 335 0 0 +17 311 0 310
 294 301 39 264 314 0 0 +14 245 139 351 ?350 243 263 33 34 +0 0 0 350 251 81 1 3
51 508 62 245 352 0 353 354 355 14 350 96 354 ?304 245 272 33 246 -0 0 245 304 2
51 14 243 147 353 ?245 0 347 33 356 -0 0 318 0 251 13 251 506 0 0 0 0 0 0 37 243
 81 1 353 507 62 243 357 0 0 351 358 15 347 148 0 325 243 0 50 356 262 0 243 359
 246 0 +0 25e-5 -2e-4 0 0 -1 0 1 0 14 318 62 360 ?0 324 316 33 361 -0 0 324 243
 251 81 1 360 512 62 318 362 0 363 252 364 14 324 69 363 ?318 304 310 33 365 -0
 0 304 318 251 50 361 259 0 318 0 365 0 +0 -.001 -.001 1 0 0 0 1 0 50 365 260 0
 324 361 359 0 +0 25e-5 -7e-4 0 1 0 0 0 1 50 359 261 0 304 365 356 0 +0 75e-5 -7
e-4 0 0 1 0 -1 0 14 304 74 366 ?324 350 299 33 359 -0 0 350 324 251 81 1 366 510
 62 304 367 0 354 363 368 81 1 367 374 180 304 0 366 369 370 371 81 1 354 509 62
 350 369 0 351 366 372 81 1 363 511 62 324 370 0 366 360 373 84 4 368 13 481 1 3
70 375 180 324 0 363 367 362 374 84 4 373 12 481 1 362 376 180 318 0 360 370 357
 375 82 1 374 1 81 1 357 392 180 243 0 353 362 376 377 82 1 375 0 81 1 376 399 1
80 244 0 0 357 344 378 82 1 377 3 19 244 157 376 5 0 37 33 0 S0 81 1 344 430 180
 254 0 343 376 379 380 82 1 378 1 81 1 379 448 180 38 0 252 344 259 381 82 1 380
 10 81 1 252 513 62 38 379 0 360 343 382 81 1 259 486 180 39 0 256 379 250 383 8
2 1 381 4 81 1 250 533 180 37 0 0 259 0 384 82 1 383 5 82 1 384 0 84 4 382 16 48
1 1 369 373 180 350 0 354 352 367 385 84 4 372 19 481 1 352 372 180 245 0 351 38
6 369 387 82 1 385 4 81 1 386 362 180 327 0 260 329 352 388 82 1 387 5 81 1 260
 524 62 327 386 0 326 256 389 81 1 329 341 180 320 0 326 390 386 391 82 1 388 3
 81 1 390 340 180 321 0 330 392 329 393 82 1 391 0 81 1 330 522 62 321 390 0 322
 326 394 81 1 392 339 180 306 0 322 395 390 396 82 1 393 5 81 1 322 521 62 306 3
92 0 313 330 397 81 1 395 338 180 302 0 313 398 392 399 82 1 396 1 81 1 313 520
 62 302 395 0 341 322 400 81 1 398 337 180 314 0 341 401 395 402 82 1 399 2 81 1
 341 519 62 314 398 0 337 313 403 81 1 401 336 180 335 0 337 404 398 405 82 1 40
2 8 81 1 337 518 62 335 401 0 342 341 406 81 1 404 335 180 309 0 342 407 401 408
 82 1 405 6 81 1 342 517 62 309 404 0 339 337 409 81 1 407 327 180 276 0 339 348
 404 410 82 1 408 9 81 1 339 516 62 276 407 0 345 342 411 81 1 348 326 180 247 0
 345 412 407 413 82 1 410 7 81 1 412 306 180 284 0 286 414 348 415 82 1 413 11 8
1 1 286 532 62 284 412 0 293 0 416 81 1 414 305 180 287 0 293 297 412 417 82 1 4
15 3 81 1 293 531 62 287 414 0 295 286 418 81 1 297 292 180 291 0 295 419 414 42
0 82 1 417 1 81 1 419 291 180 283 0 289 421 297 422 82 1 420 0 81 1 289 529 62 2
83 419 0 281 295 423 81 1 421 290 180 277 0 281 424 419 425 82 1 422 2 81 1 281
 528 62 277 421 0 270 289 426 81 1 424 289 180 268 0 270 269 421 427 82 1 425 4
 81 1 270 527 62 268 424 0 261 281 428 81 1 269 284 180 258 0 261 0 424 429 82 1
 427 6 82 1 429 7 84 4 428 25 484 4 426 21 484 3 423 9 484 3 418 6 484 4 416 10
 484 4 411 25 484 4 409 45 484 4 406 23 484 4 403 44 484 4 400 14 484 4 397 13 4
84 4 394 22 484 4 389 15 482 1 371 2 84 4 364 11 450 246 267 0 350 356 34 0 +0 7
5e-5 -2e-4 0 -1 0 0 0 -1 17 325 0 347 253 275 287 319 327 0 317 -17 253 0 347 26
6 325 39 294 38 0 311 +17 275 0 347 325 266 284 267 276 0 319 -17 319 0 316 307
 317 284 325 327 0 274 +17 274 0 272 267 290 284 307 321 0 0 -84 4 358 14 484 4
 355 29 484 4 349 50 484 4 346 46 484 4 331 12 484 3 298 5 484 4 271 26 484 4 26
2 22 474 20 242 2 0 0 250 286 0 0 0 0 0 0 0 0 0 0 0 0 0 0 0 0 0 0 70 23 0 4 T4 0
 0 2 20 1 430 430 13 24 5 0 4 0 431 0 0 432 0 50 25 128 0 433 434 0 0 +0 75e-5 1
e-4 0 0 1 0 -1 0 30 26 130 0 435 436 0 0 +0 5e-4 1e-4 0 -1 0 29 27 122 0 30 437
 0 0 0 0 19 28 1 438 4 432 0 439 0 V0 16 29 30 440 ?441 0 442 443 0 0 4 18 30 66
 444 445 0 446 27 ?4 81 1 444 157 62 30 447 0 448 449 450 17 445 0 451 452 453 3
0 454 442 0 441 -18 446 68 449 455 30 456 457 ?4 81 1 449 158 62 446 458 0 444 4
59 460 17 455 0 461 462 463 446 464 465 0 452 -18 456 70 459 454 446 466 467 ?4
 29 457 120 0 446 468 437 0 .001 0 29 468 119 0 469 467 457 0 .001 1e-4 29 437 1
21 0 466 457 27 0 0 1e-4 18 466 72 470 471 456 469 437 ?4 81 1 470 160 62 466 47
2 0 459 473 474 17 471 0 475 476 477 466 478 479 0 480 -18 469 74 473 481 466 48
2 468 ?4 81 1 473 161 62 469 483 0 470 484 485 17 481 0 486 487 488 469 489 490
 0 462 -18 482 76 484 491 469 492 493 ?4 81 1 484 162 62 482 494 0 473 495 496 1
7 491 0 497 498 499 482 500 501 0 478 -18 492 78 495 502 482 503 504 ?4 29 493 1
17 0 482 504 467 .01 0 1e-4 29 504 116 0 492 505 493 .01 75e-5 1e-4 29 467 118 0
 456 493 468 .01 0 0 29 505 115 0 503 506 504 .01 .001 1e-4 18 503 80 507 508 49
2 509 505 ?4 29 506 114 0 509 510 505 .01 .001 0 18 509 82 511 512 503 513 506 ?
4 29 510 113 0 513 514 506 .01 25e-5 1e-4 18 513 84 515 500 509 516 510 ?4 29 51
4 112 0 516 517 510 0 75e-5 1e-4 18 516 86 518 487 513 519 514 ?4 29 517 111 0 5
19 0 514 0 25e-5 1e-4 18 519 88 520 521 516 0 517 ?4 81 1 520 168 62 519 522 0 5
18 0 523 17 521 0 524 525 526 519 480 527 0 528 +15 524 29 0 526 529 0 17 525 0
 524 530 521 516 531 435 0 0 -17 526 0 524 521 441 466 476 532 0 0 +17 480 0 533
 478 528 466 521 527 0 526 -16 527 36 534 ?521 532 535 536 0 0 4 17 528 0 533 48
0 500 519 537 538 0 531 -15 533 23 0 480 539 0 17 500 0 533 528 478 513 491 501
 0 499 +17 537 0 540 541 531 513 528 538 0 0 +16 538 62 542 ?537 465 435 436 0 0
 4 17 531 0 540 537 543 519 525 435 0 0 +15 540 11 0 531 433 0 17 543 0 540 531
 541 516 502 544 0 525 -16 435 64 448 ?531 538 0 26 0 0 4 81 1 448 156 62 435 54
5 0 542 444 546 81 1 545 65 180 435 0 448 547 447 548 81 1 542 155 62 538 547 0
 549 448 550 84 4 546 18 381 1 547 63 180 538 0 542 551 545 552 81 1 549 154 62
 465 551 0 553 542 554 84 4 550 19 316 465 60 549 ?464 555 538 556 0 0 4 81 1 55
1 61 180 465 0 549 557 547 558 81 1 553 153 62 555 557 0 559 549 560 84 4 554 35
 316 555 58 553 ?453 561 465 562 0 0 4 81 1 557 59 180 555 0 553 563 551 564 81
 1 559 152 62 561 563 0 565 553 566 84 4 560 42 316 561 56 559 ?499 567 555 568
 0 0 4 81 1 563 57 180 561 0 559 569 557 570 81 1 565 151 62 567 569 0 571 559 5
72 84 4 566 48 316 567 54 565 ?463 490 561 573 0 0 4 81 1 569 55 180 567 0 565 5
74 563 575 81 1 571 150 62 490 574 0 576 565 577 84 4 572 56 316 490 52 571 ?489
 578 567 579 0 0 4 81 1 574 53 180 490 0 571 580 569 581 81 1 576 149 62 578 580
 0 582 571 583 84 4 577 36 316 578 50 576 ?488 544 490 584 0 0 4 81 1 580 51 180
 578 0 576 585 574 586 81 1 582 148 62 544 585 0 587 576 588 84 4 583 53 316 544
 48 582 ?502 501 578 589 0 0 4 81 1 585 49 180 544 0 582 590 580 591 81 1 587 14
7 62 501 590 0 592 582 593 84 4 588 28 316 501 46 587 ?500 479 544 594 0 0 4 81
 1 590 47 180 501 0 587 595 585 596 81 1 592 146 62 479 595 0 597 587 598 84 4 5
93 43 316 479 44 592 ?478 599 501 600 0 0 4 81 1 595 45 180 479 0 592 601 590 60
2 81 1 597 145 62 599 601 0 603 592 604 84 4 598 11 316 599 42 597 ?477 605 479
 606 0 0 4 81 1 601 43 180 599 0 597 607 595 608 81 1 603 144 62 605 607 0 609 5
97 610 84 4 604 41 316 605 40 603 ?611 535 599 612 0 0 4 81 1 607 41 180 605 0 6
03 613 601 614 81 1 609 143 62 535 613 0 534 603 615 84 4 610 34 316 535 38 609
 ?530 527 605 616 0 0 4 81 1 613 39 180 535 0 609 617 607 618 81 1 534 142 62 52
7 617 0 619 609 620 84 4 615 27 381 1 617 37 180 527 0 534 621 613 622 81 1 619
 141 62 532 621 0 623 534 624 84 4 620 10 316 532 34 619 ?526 442 527 625 0 0 4
 81 1 621 35 180 532 0 619 626 617 627 81 1 623 140 62 442 626 0 440 619 628 84
 3 624 7 316 442 32 623 ?454 29 532 629 0 0 4 81 1 626 33 180 442 0 623 630 621
 631 81 1 440 139 62 29 630 0 632 623 633 84 3 628 9 381 1 630 31 180 29 0 440 6
34 626 635 81 1 632 138 62 529 634 0 636 440 637 84 3 633 8 314 529 27 632 ?0 63
8 524 24 639 -0 0 638 433 439 81 1 634 28 180 529 0 632 640 630 641 81 1 636 137
 62 638 640 0 642 632 643 84 3 637 7 314 638 24 636 ?529 539 475 24 644 -0 0 539
 529 439 81 1 640 25 180 638 0 636 645 634 646 81 1 642 136 62 539 645 0 647 636
 648 84 3 643 8 314 539 21 642 ?638 649 533 24 650 -0 0 649 638 439 81 1 645 22
 180 539 0 642 651 640 652 81 1 647 135 62 649 651 0 653 642 654 84 4 648 10 314
 649 18 647 ?539 655 486 24 656 -0 0 655 539 439 81 1 651 19 180 649 0 647 657 6
45 658 81 1 653 134 62 655 657 0 659 647 660 84 4 654 22 314 655 15 653 ?649 661
 461 24 662 -0 0 661 649 439 81 1 657 16 180 655 0 653 663 651 664 81 1 659 133
 62 661 663 0 665 653 666 84 4 660 25 314 661 12 659 ?655 433 497 24 667 +0 0 0
 655 439 81 1 663 13 180 661 0 659 668 657 669 81 1 665 132 62 433 668 0 670 659
 671 84 4 666 28 314 433 9 665 ?661 431 540 24 25 +0 0 529 431 439 81 1 668 10 1
80 433 0 665 672 663 673 81 1 670 131 62 431 672 0 0 665 674 84 4 671 17 314 431
 6 670 ?433 0 451 24 434 -0 0 433 0 439 81 1 672 7 180 431 0 670 675 668 676 84
 3 674 9 381 1 675 4 180 432 0 0 0 672 677 82 1 676 2 19 432 3 675 4 0 28 24 0 S
0 82 1 677 1 15 451 8 0 452 431 0 50 434 123 0 431 639 25 0 +0 .001 0 0 0 1 0 -1
 0 13 439 2 0 0 0 0 0 0 28 431 50 639 96 0 529 644 434 0 +0 -.001 -.001 1 0 0 0
 1 0 50 644 95 0 638 650 639 0 +0 0 0 0 1 0 0 0 1 50 650 93 0 539 656 644 0 +0 0
 1e-4 0 0 -1 0 1 0 50 656 92 0 649 662 650 0 +0 75e-5 1e-4 0 0 -1 0 1 0 50 662 9
1 0 655 667 656 0 +0 .001 1e-4 0 -1 0 0 0 -1 50 667 90 0 661 0 662 0 +.01 -.001
 -.001 1 0 0 0 1 0 17 452 0 451 464 445 446 441 29 0 611 -17 464 0 451 453 452 5
09 455 465 0 463 +17 441 0 524 526 611 30 452 29 0 476 +17 611 0 524 441 530 446
 462 605 0 0 +17 530 0 524 611 525 469 487 535 0 0 +17 462 0 461 489 455 469 611
 605 0 530 -15 461 17 0 462 655 0 17 489 0 461 463 462 503 481 490 0 488 +17 463
 0 461 455 489 509 508 567 0 0 +17 488 0 486 481 502 503 678 578 0 0 +15 486 20
 0 487 649 0 17 502 0 486 488 487 492 543 544 0 541 +17 678 0 497 499 508 492 48
8 578 0 0 -15 497 14 0 498 661 0 17 499 0 497 491 678 513 541 561 0 537 +17 508
 0 497 678 512 503 463 567 0 489 -17 512 0 497 508 498 509 453 555 0 464 -17 498
 0 497 512 491 456 477 599 0 0 -17 453 0 451 445 464 456 512 555 0 498 +17 477 0
 475 471 454 482 498 599 0 0 +15 475 26 0 476 638 0 17 454 0 475 477 476 456 445
 442 0 453 +17 476 0 475 454 471 30 526 532 0 0 -17 541 0 540 543 537 492 499 56
1 0 678 -17 487 0 486 502 481 516 530 535 0 543 -82 1 673 4 82 1 669 7 82 1 664
 6 82 1 658 5 82 1 652 3 82 1 646 1 82 1 641 0 82 1 635 1 82 1 631 2 30 629 126
 0 442 562 443 0 +.005 0 0 1 0 0 30 562 125 0 555 556 629 0 +.01 5e-4 0 49563527
8850529e-31 -1 0 30 443 127 0 29 629 436 0 +0 5e-4 0 0 -1 0 30 436 129 0 538 443
 26 0 +.005 25e-5 1e-4 1 0 174246777720884e-33 30 556 124 0 465 625 562 0 +.005
 .001 0 1 0 0 30 625 110 0 532 536 556 0 +0 0 5e-5 0 0 1 30 536 107 0 527 600 62
5 0 +0 125e-6 1e-4 0 1 0 30 600 106 0 479 616 536 0 +.005 0 1e-4 1 0 17424677772
0884e-33 30 616 105 0 535 589 600 0 +0 875e-6 1e-4 0 1 0 30 589 104 0 544 612 61
6 0 +.005 75e-5 1e-4 1 -247817639425259e-32 174246777720884e-33 30 612 103 0 605
 579 589 0 +0 .001 5e-5 0 0 -1 30 579 102 0 490 606 612 0 +.005 .001 1e-4 1 0 17
4246777720884e-33 30 606 101 0 599 594 579 0 +.01 0 5e-5 0 0 1 30 594 100 0 501
 568 606 0 +.01 125e-6 1e-4 1982541115402055e-31 1 0 30 568 99 0 561 584 594 0 +
.01 5e-4 1e-4 991270557701032e-31 -1 0 30 584 98 0 578 573 568 0 +.01 875e-6 1e-
4 1982541115402215e-31 1 0 30 573 97 0 567 0 584 0 +.01 .001 5e-5 0 0 -1 82 1 62
7 0 82 1 622 3 82 1 618 7 82 1 614 9 82 1 608 12 82 1 602 4 17 478 0 533 500 480
 482 471 479 0 477 +82 1 596 14 82 1 591 8 82 1 586 16 82 1 581 11 82 1 575 17 8
2 1 570 15 82 1 564 13 82 1 558 10 82 1 552 6 81 1 447 67 180 30 0 444 545 458 6
79 82 1 548 5 81 1 458 69 180 446 0 449 447 680 681 82 1 679 0 81 1 680 71 180 4
56 0 459 458 472 682 82 1 681 4 81 1 459 159 62 456 680 0 449 470 683 81 1 472 7
3 180 466 0 470 680 483 684 82 1 682 6 81 1 483 75 180 469 0 473 472 494 685 82
 1 684 1 81 1 494 77 180 482 0 484 483 686 687 82 1 685 5 81 1 686 79 180 492 0
 495 494 688 689 82 1 687 7 81 1 495 163 62 492 686 0 484 507 690 81 1 688 81 18
0 503 0 507 686 691 692 82 1 689 9 81 1 507 164 62 503 688 0 495 511 693 81 1 69
1 83 180 509 0 511 688 694 695 82 1 692 11 81 1 511 165 62 509 691 0 507 515 696
 81 1 694 85 180 513 0 515 691 697 698 82 1 695 10 81 1 515 166 62 513 694 0 511
 518 699 81 1 697 87 180 516 0 518 694 522 700 82 1 698 8 81 1 518 167 62 516 69
7 0 515 520 701 81 1 522 89 180 519 0 520 697 438 702 82 1 700 3 81 1 438 169 18
0 28 0 0 522 0 703 82 1 702 2 82 1 703 0 84 4 701 11 384 4 699 23 384 4 696 31 3
84 4 693 32 384 4 690 27 384 4 683 19 384 3 523 7 384 4 496 20 384 4 485 16 384
 3 474 4 384 4 460 15 384 3 450 3 374 20 430 2 0 0 438 520 0 0 0 0 0 0 0 0 0 0 0
 0 0 0 0 0 0 0 70 15 0 4 T3 0 0 2 20 1 704 704 13 16 5 0 3 0 705 0 0 706 0 50 17
 85 0 707 708 0 0 +0 .001 0 0 0 1 0 -1 0 30 18 89 0 709 710 0 0 +0 5e-4 0 0 -1 0
 29 19 84 0 22 711 0 0 0 -1e-4 19 20 1 712 3 706 0 713 0 V0 16 21 24 714 ?715 0
 716 717 0 0 3 18 22 48 718 719 0 720 19 ?3 81 1 718 108 62 22 721 0 722 723 724
 17 719 0 725 726 727 22 728 716 0 715 -18 720 50 723 729 22 730 711 ?3 81 1 723
 109 62 720 731 0 718 732 733 17 729 0 734 735 736 720 737 738 0 726 -18 730 52
 732 728 720 739 740 ?3 29 711 83 0 720 740 19 0 .001 -1e-4 29 740 82 0 730 741
 711 .01 0 -1e-4 29 741 81 0 739 742 740 .01 .001 0 18 739 54 743 744 730 745 74
1 ?3 29 742 80 0 745 746 741 .01 .001 -1e-4 18 745 56 747 748 739 749 742 ?3 29
 746 79 0 749 750 742 .01 0 0 18 749 58 751 752 745 753 746 ?3 29 750 78 0 753 7
54 746 0 .001 0 18 753 60 755 735 749 756 750 ?3 29 754 77 0 756 0 750 0 0 0 18
 756 62 757 758 753 0 754 ?3 81 1 757 115 62 756 759 0 755 0 760 17 758 0 761 76
2 715 756 763 764 0 765 +15 761 23 0 758 766 0 17 762 0 761 767 758 753 768 709
 0 0 -17 715 0 761 758 767 22 726 21 0 763 +17 763 0 769 728 765 22 758 764 0 0
 -16 764 28 770 ?758 716 771 772 0 0 3 17 765 0 769 763 752 756 773 774 0 768 -1
5 769 20 0 763 775 0 17 752 0 769 765 728 749 776 777 0 778 +17 773 0 779 780 76
8 749 765 774 0 0 +16 774 44 781 ?773 738 709 710 0 0 3 17 768 0 779 773 782 756
 762 709 0 0 +15 779 11 0 768 707 0 17 782 0 779 768 780 753 744 783 0 762 -16 7
09 46 722 ?768 774 0 18 0 0 3 81 1 722 107 62 709 784 0 781 718 785 81 1 784 47
 180 709 0 722 786 721 787 81 1 781 106 62 774 786 0 788 722 789 84 3 785 8 281
 1 786 45 180 774 0 781 790 784 791 81 1 788 105 62 738 790 0 792 781 793 84 3 7
89 9 216 738 42 788 ?737 794 774 795 0 0 3 81 1 790 43 180 738 0 788 796 786 797
 81 1 792 104 62 794 796 0 798 788 799 84 4 793 33 216 794 40 792 ?727 800 738 8
01 0 0 3 81 1 796 41 180 794 0 792 802 790 803 81 1 798 103 62 800 802 0 804 792
 805 84 4 799 40 216 800 38 798 ?778 806 794 807 0 0 3 81 1 802 39 180 800 0 798
 808 796 809 81 1 804 102 62 806 808 0 810 798 811 84 4 805 42 216 806 36 804 ?7
36 783 800 812 0 0 3 81 1 808 37 180 806 0 804 813 802 814 81 1 810 101 62 783 8
13 0 815 804 816 84 4 811 55 216 783 34 810 ?744 777 806 817 0 0 3 81 1 813 35 1
80 783 0 810 818 808 819 81 1 815 100 62 777 818 0 820 810 821 84 4 816 35 216 7
77 32 815 ?752 771 783 822 0 0 3 81 1 818 33 180 777 0 815 823 813 824 81 1 820
 99 62 771 823 0 770 815 825 84 4 821 39 216 771 30 820 ?767 764 777 826 0 0 3 8
1 1 823 31 180 771 0 820 827 818 828 81 1 770 98 62 764 827 0 829 820 830 84 4 8
25 32 281 1 827 29 180 764 0 770 831 823 832 81 1 829 97 62 716 831 0 714 770 83
3 84 3 830 4 216 716 26 829 ?728 21 764 834 0 0 3 81 1 831 27 180 716 0 829 835
 827 836 81 1 714 96 62 21 835 0 837 829 838 84 3 833 6 281 1 835 25 180 21 0 71
4 839 831 840 81 1 837 95 62 766 839 0 841 714 842 84 3 838 5 214 766 21 837 ?0
 775 761 16 708 -0 0 775 707 713 81 1 839 22 180 766 0 837 843 835 844 81 1 841
 94 62 775 843 0 845 837 846 84 3 842 4 214 775 18 841 ?766 847 769 16 848 -0 0
 847 766 713 81 1 843 19 180 775 0 841 849 839 850 81 1 845 93 62 847 849 0 851
 841 852 84 3 846 5 214 847 15 845 ?775 853 734 16 854 -0 0 853 775 713 81 1 849
 16 180 847 0 845 855 843 856 81 1 851 92 62 853 855 0 857 845 858 84 4 852 24 2
14 853 12 851 ?847 707 859 16 860 +0 0 0 847 713 81 1 855 13 180 853 0 851 861 8
49 862 81 1 857 91 62 707 861 0 863 851 864 84 4 858 27 214 707 9 857 ?853 705 7
79 16 17 +0 0 766 705 713 81 1 861 10 180 707 0 857 865 855 866 81 1 863 90 62 7
05 865 0 0 857 867 84 3 864 9 214 705 6 863 ?707 0 725 16 868 -0 0 707 0 713 81
 1 865 7 180 705 0 863 869 861 870 84 3 867 6 281 1 869 4 180 706 0 0 0 865 871
 82 1 870 2 19 706 3 869 3 0 20 16 0 S0 82 1 871 1 15 725 8 0 726 705 0 50 868 6
6 0 705 854 848 0 +0 .001 -1e-4 0 0 1 0 -1 0 13 713 2 0 0 0 0 0 0 20 705 50 854
 65 0 847 860 868 0 +0 .001 0 0 -1 0 0 0 -1 50 848 67 0 775 868 708 0 +0 0 -1e-4
 0 1 0 0 0 1 50 708 68 0 766 848 17 0 +0 -.001 -.001 1 0 0 0 1 0 50 860 64 0 853
 0 854 0 +.01 -.001 -.001 1 0 0 0 1 0 17 726 0 725 737 719 720 715 21 0 767 -17
 737 0 725 727 726 745 729 738 0 736 +17 767 0 761 715 762 720 735 771 0 0 +17 7
35 0 734 744 729 753 767 771 0 782 -15 734 17 0 735 847 0 17 744 0 734 736 735 7
39 782 783 0 780 +17 736 0 734 729 744 745 872 806 0 0 +17 780 0 779 782 773 739
 778 800 0 872 -17 778 0 859 776 872 749 780 800 0 773 +17 872 0 859 778 748 739
 736 806 0 0 -15 859 14 0 776 853 0 17 748 0 859 872 776 745 727 794 0 737 -17 7
76 0 859 748 778 730 752 777 0 0 -17 727 0 725 719 737 730 748 794 0 776 +82 1 8
66 3 82 1 862 5 82 1 856 4 82 1 850 1 82 1 844 0 82 1 840 1 82 1 836 2 17 728 0
 769 752 763 730 719 716 0 727 +30 834 74 0 716 826 717 0 +.005 0 -1e-4 1 0 -174
246777720884e-33 30 826 73 0 771 817 834 0 +0 .001 -5e-5 0 0 -1 30 717 75 0 21 8
34 772 0 +0 5e-4 -1e-4 0 -1 0 30 772 76 0 764 717 801 0 +0 0 -5e-5 0 0 1 30 801
 86 0 794 772 795 0 +.01 5e-4 -1e-4 495635278850529e-31 -1 0 30 795 87 0 738 801
 710 0 +.005 .001 -1e-4 1 0 -174246777720884e-33 30 710 88 0 774 795 18 0 +.005
 0 0 1 0 0 30 817 72 0 783 822 826 0 +.005 .001 0 1 0 0 30 822 71 0 777 807 817
 0 +.01 0 -5e-5 0 0 1 30 807 70 0 800 812 822 0 +.01 5e-4 0 495635278850529e-31
 -1 0 30 812 69 0 806 0 807 0 +.01 .001 -5e-5 0 0 -1 82 1 832 0 82 1 828 5 82 1
 824 8 82 1 819 7 82 1 814 11 82 1 809 10 82 1 803 9 82 1 797 6 82 1 791 4 81 1
 721 49 180 22 0 718 784 731 873 82 1 787 3 81 1 731 51 180 720 0 723 721 874 87
5 82 1 873 0 81 1 874 53 180 730 0 732 731 876 877 82 1 875 2 81 1 732 110 62 73
0 874 0 723 743 878 81 1 876 55 180 739 0 743 874 879 880 82 1 877 4 81 1 743 11
1 62 739 876 0 732 747 881 81 1 879 57 180 745 0 747 876 882 883 82 1 880 7 81 1
 747 112 62 745 879 0 743 751 884 81 1 882 59 180 749 0 751 879 885 886 82 1 883
 6 81 1 751 113 62 749 882 0 747 755 887 81 1 885 61 180 753 0 755 882 759 888 8
2 1 886 5 81 1 755 114 62 753 885 0 751 757 889 81 1 759 63 180 756 0 757 885 71
2 890 82 1 888 3 81 1 712 116 180 20 0 0 759 0 891 82 1 890 1 82 1 891 0 84 4 88
9 15 284 4 887 19 284 4 884 30 284 4 881 31 284 4 878 18 284 3 760 3 284 4 733 1
4 284 3 724 2 274 20 704 2 0 0 712 757 0 0 0 0 0 0 0 0 0 0 0 0 0 0 0 0 0 0 70 7
 0 4 T2 0 0 2 20 1 892 892 13 8 5 0 2 0 893 0 0 894 0 50 9 125 0 893 895 0 0 +0
 .001 -1e-4 0 0 1 0 -1 0 30 10 129 0 896 897 0 0 +.005 .001 -1e-4 1 0 -174246777
720884e-33 29 11 119 0 14 898 0 0 0 -2e-4 19 12 1 899 2 894 0 900 0 V0 16 13 30
 901 ?902 0 903 904 0 0 2 18 14 66 905 906 0 907 11 ?2 81 1 905 156 62 14 908 0
 909 910 911 17 906 0 912 913 914 14 915 916 0 917 -18 907 68 910 918 14 919 898
 ?2 81 1 910 157 62 907 920 0 905 921 922 17 918 0 923 924 925 907 926 927 0 928
 -18 919 70 921 914 907 929 930 ?2 29 898 118 0 907 930 11 0 .001 -2e-4 29 930 1
17 0 919 931 898 .01 0 -2e-4 29 931 116 0 929 932 930 .01 25e-5 -2e-4 18 929 72
 933 934 919 935 931 ?2 29 932 115 0 935 936 931 .01 .001 -2e-4 18 935 74 937 92
5 929 938 932 ?2 29 936 114 0 938 939 932 .01 .001 -1e-4 18 938 76 940 941 935 9
42 936 ?2 29 939 113 0 942 943 936 .01 75e-5 -2e-4 18 942 78 944 945 938 946 939
 ?2 29 943 112 0 946 947 939 .01 0 -1e-4 18 946 80 948 949 942 950 943 ?2 29 947
 111 0 950 951 943 0 25e-5 -2e-4 18 950 82 952 913 946 953 947 ?2 29 951 110 0 9
53 954 947 0 75e-5 -2e-4 18 953 84 955 956 950 957 951 ?2 29 954 109 0 957 958 9
51 0 .001 -1e-4 18 957 86 959 924 953 960 954 ?2 29 958 108 0 960 0 954 0 0 -1e-
4 18 960 88 961 902 957 0 958 ?2 81 1 961 167 62 960 962 0 959 0 963 17 902 0 96
4 965 917 960 966 13 0 967 +15 964 29 0 902 968 0 17 965 0 964 969 902 957 970 9
71 0 0 -17 917 0 964 902 972 14 913 973 0 966 +17 966 0 974 915 967 14 902 13 0
 0 -17 967 0 974 966 949 960 975 976 0 970 -15 974 26 0 966 977 0 17 949 0 974 9
67 915 946 978 979 0 980 +17 975 0 981 982 970 946 967 976 0 0 +16 976 60 983 ?9
75 984 985 986 0 0 2 17 970 0 981 975 987 960 965 971 0 0 +15 981 8 0 970 893 0
 17 987 0 981 970 982 957 941 896 0 965 -16 971 64 909 ?970 985 0 988 0 0 2 81 1
 909 155 62 971 989 0 990 905 991 16 985 62 990 ?992 976 971 993 0 0 2 30 988 12
6 0 971 993 986 0 +0 5e-4 -1e-4 0 -1 0 30 993 124 0 985 994 988 0 +0 5e-4 -2e-4
 0 1 0 30 986 127 0 976 988 897 0 +.005 0 -1e-4 1 0 -174246777720884e-33 30 897
 128 0 995 986 10 0 +.01 5e-4 -1e-4 495635278850529e-31 -1 0 16 995 56 996 ?980
 997 984 897 0 0 2 81 1 996 151 62 995 998 0 999 1000 1001 17 980 0 1002 978 100
3 946 982 995 0 975 +16 997 54 999 ?1004 1005 995 1006 0 0 2 16 984 58 1000 ?100
7 995 976 994 0 0 2 81 1 1000 152 62 984 1008 0 996 983 1009 17 1007 0 1010 1011
 992 942 1012 984 0 0 +30 994 123 0 984 1006 993 0 +.005 75e-5 -2e-4 1 -24781763
9425259e-32 -348493555441768e-33 30 1006 122 0 997 1013 994 0 +.01 5e-4 -2e-4 99
1270557701089e-31 1 0 30 1013 121 0 1014 904 1006 0 +.005 25e-5 -2e-4 1 0 -34849
3555441768e-33 16 1014 42 1015 ?934 979 1016 1013 0 0 2 30 904 107 0 13 1017 101
3 0 +0 0 -15e-5 0 0 1 30 1017 106 0 973 1018 904 0 +0 125e-6 -2e-4 0 -1 0 16 973
 36 1019 ?917 1020 916 1017 0 0 2 30 1018 105 0 916 1021 1017 0 +.005 0 -2e-4 1
 0 -348493555441768e-33 16 916 38 1022 ?915 973 979 1018 0 0 2 30 1021 104 0 102
0 1023 1018 0 +0 875e-6 -2e-4 0 -1 0 16 1020 34 1024 ?956 903 973 1021 0 0 2 30
 1023 103 0 903 1025 1021 0 +0 .001 -15e-5 0 0 -1 16 903 32 1026 ?969 13 1020 10
23 0 0 2 30 1025 102 0 927 1027 1023 0 +.005 .001 -2e-4 1 0 -348493555441768e-33
 16 927 46 1028 ?926 1016 1029 1025 0 0 2 30 1027 100 0 979 1030 1025 0 +.01 0 -
15e-5 0 0 1 16 979 40 1031 ?949 916 1014 1027 0 0 2 30 1030 99 0 1016 1032 1027
 0 +.01 125e-6 -2e-4 1982541115402115e-31 -1 0 16 1016 44 1033 ?914 1014 927 103
0 0 0 2 30 1032 97 0 1029 1034 1030 0 +.01 875e-6 -2e-4 1982541115402035e-31 -1
 0 16 1029 48 1035 ?945 927 896 1032 0 0 2 30 1034 96 0 1005 0 1032 0 +.01 .001
 -15e-5 0 0 -1 16 1005 52 1036 ?925 896 997 1034 0 0 2 81 1 1036 149 62 1005 103
7 0 1038 999 1039 17 925 0 923 918 941 935 1003 1005 0 1040 +16 896 50 1038 ?941
 1029 1005 10 0 0 2 81 1 1038 148 62 896 1041 0 1035 1036 1042 17 941 0 923 925
 924 938 987 896 0 982 +15 923 17 0 924 1043 0 17 924 0 923 941 918 957 969 903
 0 987 -17 982 0 981 987 975 938 980 995 0 1003 -17 1003 0 1002 980 1040 938 925
 1005 0 0 -15 1002 14 0 978 1044 0 17 1040 0 1002 1003 1004 935 945 1029 0 926 -
17 1004 0 1002 1040 1045 942 1011 997 0 1007 +17 945 0 1046 1012 926 942 1040 10
29 0 1004 +17 926 0 1046 945 928 935 918 927 0 0 +15 1046 20 0 928 1047 0 17 928
 0 1046 926 1012 907 956 1020 0 969 -17 1012 0 1046 928 945 953 1007 984 0 992 -
17 956 0 964 972 969 953 928 1020 0 1012 +17 969 0 964 956 965 907 924 903 0 0 +
17 972 0 964 917 956 950 992 985 0 0 -17 992 0 1010 1007 1048 953 972 985 0 0 +1
5 1010 11 0 992 1049 0 17 1048 0 1010 992 1011 950 934 1014 0 972 -17 1011 0 101
0 1048 1007 929 1004 997 0 1045 -17 934 0 912 914 913 929 1048 1014 0 1011 +15 9
12 23 0 913 1050 0 17 914 0 912 906 934 919 1045 1016 0 978 +17 913 0 912 934 90
6 950 917 973 0 1048 -17 1045 0 1002 1004 978 929 914 1016 0 0 -17 978 0 1002 10
45 980 919 949 979 0 915 -17 915 0 974 949 966 919 906 916 0 0 +14 1050 21 1051
 ?977 1047 912 8 1052 -0 0 977 1047 900 81 1 1051 135 62 1050 1053 0 1054 1055 1
056 14 977 24 1055 ?968 1050 974 8 1057 -0 0 968 1050 900 14 1047 18 1054 ?1050
 1043 1046 8 1058 -0 0 1050 1043 900 50 1052 93 0 1050 1058 1057 0 +0 25e-5 -2e-
4 0 0 1 0 -1 0 13 900 2 0 0 0 0 0 0 12 1044 14 1044 12 1059 ?1043 1049 1002 8 10
60 +0 0 1043 0 900 81 1 1059 132 62 1044 1061 0 1062 1063 1064 14 1043 15 1063 ?
1047 1044 923 8 1065 -0 0 1047 1044 900 14 1049 9 1062 ?1044 893 1010 8 895 +0 0
 0 893 900 50 1060 90 0 1044 0 1065 0 +.01 -.001 -.001 1 0 0 0 1 0 50 1065 91 0
 1043 1060 1058 0 +0 .001 -1e-4 0 -1 0 0 0 -1 50 1058 92 0 1047 1065 1052 0 +0 .
001 -2e-4 0 0 1 0 -1 0 81 1 1062 131 62 1049 1066 0 1067 1059 1068 14 893 6 1067
 ?1049 0 981 8 9 +0 0 1049 968 900 50 895 120 0 1049 1069 9 0 +0 25e-5 -2e-4 0 0
 -1 0 1 0 50 1069 95 0 968 1057 895 0 +0 -.001 -.001 1 0 0 0 1 0 14 968 27 1070
 ?0 977 964 8 1069 -0 0 893 977 900 50 1057 94 0 977 1052 1069 0 +0 0 -2e-4 0 1
 0 0 0 1 81 1 1070 137 62 968 1071 0 1055 901 1072 81 1 1071 28 180 968 0 1070 1
073 1074 1075 81 1 1055 136 62 977 1073 0 1051 1070 1076 81 1 901 138 62 13 1074
 0 1070 1026 1077 84 3 1072 1 181 1 1074 31 180 13 0 901 1071 1078 1079 81 1 102
6 139 62 903 1078 0 901 1024 1080 84 3 1077 1 181 1 1078 33 180 903 0 1026 1074
 1081 1082 81 1 1024 140 62 1020 1081 0 1026 1019 1083 84 4 1080 30 181 1 1081 3
5 180 1020 0 1024 1078 1084 1085 81 1 1019 141 62 973 1084 0 1024 1022 1086 84 4
 1083 24 181 1 1084 37 180 973 0 1019 1081 1087 1088 81 1 1022 142 62 916 1087 0
 1019 1031 1089 84 3 1086 2 181 1 1087 39 180 916 0 1022 1084 1090 1091 81 1 103
1 143 62 979 1090 0 1022 1015 1092 84 3 1089 3 181 1 1090 41 180 979 0 1031 1087
 1093 1094 81 1 1015 144 62 1014 1093 0 1031 1033 1095 84 4 1092 37 181 1 1093 4
3 180 1014 0 1015 1090 1096 1097 81 1 1033 145 62 1016 1096 0 1015 1028 1098 84
 4 1095 16 181 1 1096 45 180 1016 0 1033 1093 1099 1100 81 1 1028 146 62 927 109
9 0 1033 1035 1101 84 4 1098 38 181 1 1099 47 180 927 0 1028 1096 1102 1103 81 1
 1035 147 62 1029 1102 0 1028 1038 1104 84 4 1101 31 181 1 1102 49 180 1029 0 10
35 1099 1041 1105 84 4 1104 51 181 1 1041 51 180 896 0 1038 1102 1037 1106 82 1
 1105 16 81 1 1037 53 180 1005 0 1036 1041 1107 1108 82 1 1106 11 81 1 1107 55 1
80 997 0 999 1037 998 1109 82 1 1108 17 81 1 999 150 62 997 1107 0 1036 996 1110
 81 1 998 57 180 995 0 996 1107 1008 1111 82 1 1109 15 81 1 1008 59 180 984 0 10
00 998 1112 1113 82 1 1111 14 81 1 1112 61 180 976 0 983 1008 1114 1115 82 1 111
3 8 81 1 983 153 62 976 1112 0 1000 990 1116 81 1 1114 63 180 985 0 990 1112 989
 1117 82 1 1115 4 81 1 990 154 62 985 1114 0 983 909 1118 81 1 989 65 180 971 0
 909 1114 908 1119 82 1 1117 5 81 1 908 67 180 14 0 905 989 920 1120 82 1 1119 3
 81 1 920 69 180 907 0 910 908 1121 1122 82 1 1120 0 81 1 1121 71 180 919 0 921
 920 1123 1124 82 1 1122 4 81 1 921 158 62 919 1121 0 910 933 1125 81 1 1123 73
 180 929 0 933 1121 1126 1127 82 1 1124 6 81 1 933 159 62 929 1123 0 921 937 112
8 81 1 1126 75 180 935 0 937 1123 1129 1130 82 1 1127 8 81 1 937 160 62 935 1126
 0 933 940 1131 81 1 1129 77 180 938 0 940 1126 1132 1133 82 1 1130 10 81 1 940
 161 62 938 1129 0 937 944 1134 81 1 1132 79 180 942 0 944 1129 1135 1136 82 1 1
133 11 81 1 944 162 62 942 1132 0 940 948 1137 81 1 1135 81 180 946 0 948 1132 1
138 1139 82 1 1136 9 81 1 948 163 62 946 1135 0 944 952 1140 81 1 1138 83 180 95
0 0 952 1135 1141 1142 82 1 1139 7 81 1 952 164 62 950 1138 0 948 955 1143 81 1
 1141 85 180 953 0 955 1138 1144 1145 82 1 1142 2 81 1 955 165 62 953 1141 0 952
 959 1146 81 1 1144 87 180 957 0 959 1141 962 1147 82 1 1145 3 81 1 959 166 62 9
57 1144 0 955 961 1148 81 1 962 89 180 960 0 961 1144 899 1149 82 1 1147 5 81 1
 899 168 180 12 0 0 962 0 1150 82 1 1149 1 82 1 1150 0 84 4 1148 14 184 4 1146 1
0 184 3 1143 6 184 4 1140 18 184 4 1137 26 184 4 1134 30 184 4 1131 29 184 4 112
8 22 184 4 1125 17 184 4 1118 15 184 3 1116 6 184 4 1110 46 182 1 1103 10 82 1 1
100 13 82 1 1097 6 82 1 1094 12 82 1 1091 2 82 1 1088 1 82 1 1085 7 82 1 1082 9
 82 1 1079 0 81 1 1073 25 180 977 0 1055 1053 1071 1151 84 3 1076 2 181 1 1053 2
2 180 1050 0 1051 1152 1073 1153 82 1 1151 1 81 1 1152 19 180 1047 0 1054 1154 1
053 1155 82 1 1153 2 81 1 1054 134 62 1047 1152 0 1063 1051 1156 81 1 1154 16 18
0 1043 0 1063 1061 1152 1157 82 1 1155 5 81 1 1063 133 62 1043 1154 0 1059 1054
 1158 81 1 1061 13 180 1044 0 1059 1066 1154 1159 82 1 1157 6 81 1 1066 10 180 1
049 0 1062 1160 1061 1161 82 1 1159 7 81 1 1160 7 180 893 0 1067 1162 1066 1163
 82 1 1161 4 81 1 1067 130 62 893 1160 0 0 1062 1164 81 1 1162 4 180 894 0 0 0 1
160 1165 82 1 1163 3 19 894 3 1162 2 0 12 8 0 S0 82 1 1165 1 84 3 1164 6 184 4 1
158 23 184 4 1156 20 182 1 1075 0 84 4 1068 14 184 4 1064 26 184 3 1056 3 184 4
 1042 33 184 4 1039 54 184 4 1009 25 184 4 1001 40 184 3 991 5 184 3 963 2 184 4
 922 13 184 3 911 1 174 20 892 2 0 0 899 961 0 0 0 0 0 0 0 0 0 0 0 0 0 0 0 0 0 0
 1 0 
